<svg id="visual" viewBox="0 0 960 300" width="960" height="300" xmlns="http://www.w3.org/2000/svg" xmlns:xlink="http://www.w3.org/1999/xlink" version="1.1"><rect x="0" y="0" width="960" height="300" fill="#5678CF"></rect><path d="M0 250L22.8 242C45.7 234 91.3 218 137 213.5C182.7 209 228.3 216 274 224.8C319.7 233.7 365.3 244.3 411.2 250.2C457 256 503 257 548.8 255.8C594.7 254.7 640.3 251.3 686 242.7C731.7 234 777.3 220 823 220.5C868.7 221 914.3 236 937.2 243.5L960 251L960 301L937.2 301C914.3 301 868.7 301 823 301C777.3 301 731.7 301 686 301C640.3 301 594.7 301 548.8 301C503 301 457 301 411.2 301C365.3 301 319.7 301 274 301C228.3 301 182.7 301 137 301C91.3 301 45.7 301 22.8 301L0 301Z" fill="#E6E7FF" stroke-linecap="round" stroke-linejoin="miter"></path></svg>